<svg width="45" height="34" viewBox="0 0 45 34" fill="none" xmlns="http://www.w3.org/2000/svg">
<path d="M43.5431 13.0581C43.1957 12.5758 42.7386 12.183 42.2095 11.9121C41.6804 11.6412 41.0944 11.4999 40.5 11.5H38.25V8.5C38.25 7.50544 37.8549 6.55161 37.1517 5.84835C36.4484 5.14509 35.4946 4.75 34.5 4.75H21.75L16.7513 1C16.1014 0.514614 15.3124 0.251612 14.5013 0.25H4.5C3.50544 0.25 2.55161 0.645088 1.84835 1.34835C1.14509 2.05161 0.75 3.00544 0.75 4V31C0.75 31.5967 0.987053 32.169 1.40901 32.591C1.83097 33.0129 2.40326 33.25 3 33.25H36.5813C37.0471 33.2506 37.5016 33.1067 37.8821 32.838C38.2626 32.5693 38.5504 32.1892 38.7056 31.75L44.0475 16.4744L44.0588 16.4425C44.2476 15.8779 44.2993 15.2765 44.2097 14.688C44.12 14.0995 43.8915 13.5408 43.5431 13.0581ZM14.25 4.75L19.65 8.8C20.0395 9.0921 20.5132 9.25 21 9.25H33.75V11.5H10.0819C9.29809 11.5001 8.53403 11.7457 7.89705 12.2024C7.26008 12.6591 6.78222 13.3039 6.53063 14.0463L5.25 17.7156V4.75H14.25ZM34.9856 28.75H6.16688L10.6144 16H39.4444L34.9856 28.75Z" fill="#FDFAEC"/>
</svg>
