<svg width="36" height="40" viewBox="0 0 36 40" fill="none" xmlns="http://www.w3.org/2000/svg">
<path d="M19.404 0.39024L33.404 5.64024C34.1666 5.92611 34.8238 6.43795 35.2877 7.10735C35.7516 7.77675 36.0001 8.57181 36 9.38624V20.1122C36.0001 23.4551 35.0693 26.7319 33.3119 29.5756C31.5545 32.4192 29.0399 34.7172 26.05 36.2122L19.342 39.5662C18.9253 39.7746 18.4659 39.8831 18 39.8831C17.5341 39.8831 17.0747 39.7746 16.658 39.5662L9.95 36.2122C6.96008 34.7172 4.44553 32.4192 2.68814 29.5756C0.930741 26.7319 -7.20634e-05 23.4551 3.10356e-08 20.1122V9.38624C-0.000101397 8.57181 0.248408 7.77675 0.712306 7.10735C1.1762 6.43795 1.83339 5.92611 2.596 5.64024L16.596 0.39024C17.5012 0.0509095 18.4988 0.0509095 19.404 0.39024ZM18 4.13624L4 9.38624V20.1122C4.00046 22.712 4.72479 25.2602 6.09183 27.4715C7.45887 29.6828 9.41463 31.4698 11.74 32.6322L18 35.7662L24.26 32.6362C26.586 31.4735 28.5421 29.6859 29.9092 27.4738C31.2763 25.2618 32.0003 22.7127 32 20.1122V9.38624L18 4.13624ZM18 12.0002C18.8537 11.9999 19.6852 12.2727 20.3727 12.7788C21.0603 13.2848 21.5679 13.9976 21.8213 14.8129C22.0748 15.6281 22.0607 16.5031 21.7812 17.3097C21.5017 18.1164 20.9715 18.8125 20.268 19.2962L20 19.4662V26.0002C19.9994 26.51 19.8042 27.0003 19.4543 27.371C19.1044 27.7416 18.6261 27.9647 18.1172 27.9946C17.6083 28.0245 17.1072 27.8589 16.7163 27.5317C16.3254 27.2045 16.0742 26.7404 16.014 26.2342L16 26.0002V19.4662C15.2365 19.0264 14.6396 18.3467 14.302 17.5328C13.9644 16.7189 13.9049 15.8163 14.1329 14.9652C14.3609 14.1141 14.8636 13.362 15.5629 12.8259C16.2621 12.2898 17.1189 11.9995 18 12.0002Z" fill="#FDFAEC"/>
</svg>
