<?xml version="1.0" encoding="UTF-8" standalone="no" ?>
<!DOCTYPE svg PUBLIC "-//W3C//DTD SVG 1.1//EN" "http://www.w3.org/Graphics/SVG/1.1/DTD/svg11.dtd">
<svg xmlns="http://www.w3.org/2000/svg" xmlns:xlink="http://www.w3.org/1999/xlink" version="1.1" width="1280" height="1024" viewBox="0 0 1280 1024" xml:space="preserve">
<desc>Created with Fabric.js 5.3.0</desc>
<defs>
</defs>
<g transform="matrix(1 0 0 1 640 512)" id="background-logo"  >
<rect style="stroke: none; stroke-width: 0; stroke-dasharray: none; stroke-linecap: butt; stroke-dashoffset: 0; stroke-linejoin: miter; stroke-miterlimit: 4; fill: rgb(255,255,255); fill-opacity: 0; fill-rule: nonzero; opacity: 1;"  paint-order="stroke"  x="-640" y="-512" rx="0" ry="0" width="1280" height="1024" />
</g>
<g transform="matrix(1.9211538461538462 0 0 1.9211538461538462 643.0546346153847 623.2633146237179)" id="text-logo"  >
<g style=""  paint-order="stroke"   >
		<g transform="matrix(1 0 0 1 0 0)" id="text-logo-path-0"  >
<path style="stroke: none; stroke-width: 0; stroke-dasharray: none; stroke-linecap: butt; stroke-dashoffset: 0; stroke-linejoin: miter; stroke-miterlimit: 4; fill: rgb(217,217,217); fill-rule: nonzero; opacity: 1;"  paint-order="stroke"  transform=" translate(-200.70000000000002, 21.180000000000003)" d="M 4.08 -42.3 L 9.54 -42.3 L 9.54 -16.92 Q 9.54 -10.68 12.3 -7.71 Q 15.06 -4.74 19.92 -4.74 L 19.92 -4.74 Q 24.72 -4.74 27.42 -7.74 Q 30.12 -10.74 30.12 -16.92 L 30.12 -16.92 L 30.12 -42.3 L 35.58 -42.3 L 35.58 -16.92 Q 35.58 -8.28 31.29 -3.93 Q 27 0.42 19.8 0.42 L 19.8 0.42 Q 12.66 0.42 8.37 -3.93 Q 4.08 -8.28 4.08 -16.92 L 4.08 -16.92 L 4.08 -42.3 Z M 83.22 -21.18 Q 83.22 -14.76 80.64 -9.99 Q 78.06 -5.22 73.05 -2.61 Q 68.04 0 61.02 0 L 61.02 0 L 47.58 0 L 47.58 -42.3 L 61.02 -42.3 Q 68.04 -42.3 73.05 -39.75 Q 78.06 -37.2 80.64 -32.43 Q 83.22 -27.66 83.22 -21.18 L 83.22 -21.18 Z M 60.6 -4.92 Q 68.88 -4.92 73.26 -9.18 Q 77.64 -13.44 77.64 -21.18 L 77.64 -21.18 Q 77.64 -28.92 73.29 -33.21 Q 68.94 -37.5 60.6 -37.5 L 60.6 -37.5 L 53.04 -37.5 L 53.04 -4.92 L 60.6 -4.92 Z M 113.52 -42.84 Q 119.4 -42.84 124.11 -40.08 Q 128.82 -37.32 131.52 -32.37 Q 134.22 -27.42 134.22 -21.18 L 134.22 -21.18 Q 134.22 -14.94 131.52 -9.99 Q 128.82 -5.04 124.11 -2.28 Q 119.4 0.48 113.52 0.48 L 113.52 0.48 Q 107.64 0.48 102.87 -2.28 Q 98.1 -5.04 95.4 -9.99 Q 92.7 -14.94 92.7 -21.18 L 92.7 -21.18 Q 92.7 -27.42 95.4 -32.37 Q 98.1 -37.32 102.87 -40.08 Q 107.64 -42.84 113.52 -42.84 L 113.52 -42.84 Z M 113.52 -37.74 Q 109.14 -37.74 105.69 -35.73 Q 102.24 -33.72 100.29 -29.97 Q 98.34 -26.22 98.34 -21.18 L 98.34 -21.18 Q 98.34 -16.2 100.29 -12.42 Q 102.24 -8.64 105.69 -6.63 Q 109.14 -4.62 113.52 -4.62 L 113.52 -4.62 Q 117.84 -4.62 121.29 -6.66 Q 124.74 -8.7 126.69 -12.45 Q 128.64 -16.2 128.64 -21.18 L 128.64 -21.18 Q 128.64 -26.22 126.69 -29.97 Q 124.74 -33.72 121.29 -35.73 Q 117.84 -37.74 113.52 -37.74 L 113.52 -37.74 Z M 163.86 -42.72 Q 171.6 -42.72 176.64 -38.91 Q 181.68 -35.1 183.6 -28.5 L 183.6 -28.5 L 177.84 -28.5 Q 176.22 -32.7 172.62 -35.19 Q 169.02 -37.68 163.8 -37.68 L 163.8 -37.68 Q 159.66 -37.68 156.39 -35.67 Q 153.12 -33.66 151.23 -29.91 Q 149.34 -26.16 149.34 -21.12 L 149.34 -21.12 Q 149.34 -16.14 151.23 -12.42 Q 153.12 -8.7 156.39 -6.69 Q 159.66 -4.68 163.8 -4.68 L 163.8 -4.68 Q 169.02 -4.68 172.62 -7.17 Q 176.22 -9.66 177.84 -13.86 L 177.84 -13.86 L 183.6 -13.86 Q 181.68 -7.26 176.64 -3.45 Q 171.6 0.36 163.86 0.36 L 163.86 0.36 Q 157.92 0.36 153.36 -2.37 Q 148.8 -5.1 146.25 -9.99 Q 143.7 -14.88 143.7 -21.12 L 143.7 -21.12 Q 143.7 -27.42 146.25 -32.34 Q 148.8 -37.26 153.36 -39.99 Q 157.92 -42.72 163.86 -42.72 L 163.86 -42.72 Z M 194.16 -42.3 L 199.62 -42.3 L 199.62 -16.92 Q 199.62 -10.68 202.38 -7.71 Q 205.14 -4.74 210 -4.74 L 210 -4.74 Q 214.8 -4.74 217.5 -7.74 Q 220.2 -10.74 220.2 -16.92 L 220.2 -16.92 L 220.2 -42.3 L 225.66 -42.3 L 225.66 -16.92 Q 225.66 -8.28 221.37 -3.93 Q 217.08 0.42 209.88 0.42 L 209.88 0.42 Q 202.74 0.42 198.45 -3.93 Q 194.16 -8.28 194.16 -16.92 L 194.16 -16.92 L 194.16 -42.3 Z M 273.48 -41.58 L 280.02 -41.58 L 280.02 0 L 274.56 0 L 274.56 -33.18 L 261.3 0 L 256.44 0 L 243.12 -33.06 L 243.12 0 L 237.66 0 L 237.66 -41.58 L 244.2 -41.58 L 258.96 -6.66 L 273.48 -41.58 Z M 315.66 -37.86 L 297.78 -37.86 L 297.78 -23.4 L 313.86 -23.4 L 313.86 -19.2 L 297.78 -19.2 L 297.78 -4.44 L 315.66 -4.44 L 315.66 0 L 292.32 0 L 292.32 -42.3 L 315.66 -42.3 L 315.66 -37.86 Z M 359.1 -42.3 L 359.1 0 L 353.64 0 L 331.68 -33.42 L 331.68 0 L 326.22 0 L 326.22 -42.3 L 331.68 -42.3 L 353.64 -8.82 L 353.64 -42.3 L 359.1 -42.3 Z M 367.98 -42.3 L 397.32 -42.3 L 397.32 -37.86 L 385.38 -37.86 L 385.38 0 L 379.92 0 L 379.92 -37.86 L 367.98 -37.86 L 367.98 -42.3 Z" stroke-linecap="round" />
</g>
</g>
</g>
<g transform="matrix(1.9211538461538462 0 0 1.9211538461538462 648.3302844238282 411.53900325488786)" id="tagline-8919ada3-e78e-41fd-9409-f6b49134a301-logo"  >
<g style=""  paint-order="stroke"   >
		<g transform="matrix(1 0 0 1 0 0)" id="tagline-8919ada3-e78e-41fd-9409-f6b49134a301-logo-path-0"  >
<path style="stroke: none; stroke-width: 0; stroke-dasharray: none; stroke-linecap: butt; stroke-dashoffset: 0; stroke-linejoin: miter; stroke-miterlimit: 4; fill: rgb(217,217,217); fill-rule: nonzero; opacity: 1;"  paint-order="stroke"  transform=" translate(-66.83, 60.265)" d="M 9.1 -108.2 L 20.3 -108.2 L 20.3 -51.64 C 20.3 -17.81 40.69 1.61 66.47 1.61 C 92.89 1.61 113.68 -17.81 113.68 -53.09 L 113.68 -108.2 L 124.56 -108.2 L 124.56 -122.14 L 85 -122.14 L 85 -108.2 L 98.21 -108.2 L 98.21 -51.32 C 98.21 -22.32 85.32 -13.37 66.79 -13.37 C 49.06 -13.37 36.17 -24.01 36.17 -51.32 L 36.17 -108.2 L 48.66 -108.2 L 48.66 -122.14 L 9.1 -122.14 Z" stroke-linecap="round" />
</g>
</g>
</g>
<g transform="matrix(1 0 0 1 325 387.55375844277603)" id="tagline-856fc953-ad3d-4f4a-b95b-0be4e215395f-logo"  >
<g style=""  paint-order="stroke"   >
		<g transform="matrix(1 0 0 1 0 0)" id="tagline-856fc953-ad3d-4f4a-b95b-0be4e215395f-logo-path-0"  >
<path style="stroke: none; stroke-width: 0; stroke-dasharray: none; stroke-linecap: butt; stroke-dashoffset: 0; stroke-linejoin: miter; stroke-miterlimit: 4; fill: rgb(217,217,217); fill-rule: nonzero; opacity: 1;"  paint-order="stroke"  transform=" translate(0, 0)" d="" stroke-linecap="round" />
</g>
</g>
</g>
</svg>