<svg width="48" height="30" viewBox="0 0 48 30" fill="none" xmlns="http://www.w3.org/2000/svg">
<path d="M24.255 1.65625L16.995 7.78125C15.7875 8.79688 15.555 10.625 16.47 11.9297C17.4375 13.3203 19.32 13.5938 20.6175 12.5391L28.065 6.50781C28.59 6.08594 29.34 6.17969 29.7525 6.72656C30.165 7.27344 30.0675 8.05469 29.5425 8.48438L27.975 9.75L41.265 22.5H44.4C46.3875 22.5 48 20.8203 48 18.75V8.75C48 6.67969 46.3875 5 44.4 5H38.3475L38.055 4.80469L32.61 1.17188C31.4625 0.40625 30.12 0 28.755 0C27.12 0 25.53 0.585937 24.255 1.65625ZM25.965 11.375L22.0875 14.5156C19.725 16.4375 16.2975 15.9375 14.5275 13.4062C12.8625 11.0234 13.2825 7.69531 15.48 5.84375L21.72 0.585938C20.85 0.203125 19.9125 0.00781238 18.96 0.00781238C17.55 -1.19326e-07 16.1775 0.4375 15 1.25L9.6 5H3.6C1.6125 5 0 6.67969 0 8.75V18.75C0 20.8203 1.6125 22.5 3.6 22.5H11.715L18.57 29.0156C20.04 30.4141 22.3125 30.3047 23.655 28.7734C24.0675 28.2969 24.345 27.7422 24.4875 27.1641L25.7625 28.3828C27.225 29.7812 29.505 29.6797 30.8475 28.1562C31.185 27.7734 31.4325 27.3281 31.59 26.8672C33.045 27.8828 35.025 27.6719 36.2475 26.2812C37.59 24.7578 37.4925 22.3828 36.03 20.9844L25.965 11.375Z" fill="#FDFAEC"/>
</svg>
